<svg xmlns="http://www.w3.org/2000/svg" width="760" height="360" viewBox="0 0 760 360" role="img" aria-label="mjr267 GitHub statistics">
<style>
  .title { font: 700 18px ui-monospace, SFMono-Regular, Menlo, Monaco, Consolas, monospace; fill: #e6edf3; }
  .label { font: 700 14px ui-monospace, SFMono-Regular, Menlo, Monaco, Consolas, monospace; fill: #f59e0b; }
  .text { font: 14px ui-monospace, SFMono-Regular, Menlo, Monaco, Consolas, monospace; fill: #9cdcfe; }
  .muted { font: 13px ui-monospace, SFMono-Regular, Menlo, Monaco, Consolas, monospace; fill: #8b949e; }
  .strong { font: 700 14px ui-monospace, SFMono-Regular, Menlo, Monaco, Consolas, monospace; fill: #9cdcfe; }
  .add { font: 700 14px ui-monospace, SFMono-Regular, Menlo, Monaco, Consolas, monospace; fill: #3fb950; }
  .del { font: 700 14px ui-monospace, SFMono-Regular, Menlo, Monaco, Consolas, monospace; fill: #f85149; }
  .dots { font: 14px ui-monospace, SFMono-Regular, Menlo, Monaco, Consolas, monospace; fill: #6e7681; }
</style>
<rect x="1" y="1" width="758" height="358" rx="14" fill="#0d1117" stroke="#30363d" />
<text x="34" y="42" class="title">GitHub Stats ─────────────────────────────────────────</text><text x="34" y="84" class="label">Repos.Owned</text><line x1="210" y1="79" x2="570" y2="79" stroke="currentColor" opacity="0"/><text x="210" y="84" class="dots">................................</text><text x="726" y="84" text-anchor="end" class="text">11</text><text x="34" y="118" class="label">Repos.Contributed</text><line x1="210" y1="113" x2="570" y2="113" stroke="currentColor" opacity="0"/><text x="210" y="118" class="dots">................................</text><text x="726" y="118" text-anchor="end" class="text">18</text><text x="34" y="164" class="label">Commits.Owned</text><line x1="210" y1="159" x2="570" y2="159" stroke="currentColor" opacity="0"/><text x="210" y="164" class="dots">................................</text><text x="726" y="164" text-anchor="end" class="text">28</text><text x="34" y="198" class="label">Commits.Other</text><line x1="210" y1="193" x2="570" y2="193" stroke="currentColor" opacity="0"/><text x="210" y="198" class="dots">................................</text><text x="726" y="198" text-anchor="end" class="text">33</text><text x="34" y="232" class="label">Commits.Total</text><line x1="210" y1="227" x2="570" y2="227" stroke="currentColor" opacity="0"/><text x="210" y="232" class="dots">................................</text><text x="726" y="232" text-anchor="end" class="strong">61</text><text x="34" y="278" class="label">Lines.Net</text><line x1="210" y1="273" x2="570" y2="273" stroke="currentColor" opacity="0"/><text x="210" y="278" class="dots">................................</text><text x="726" y="278" text-anchor="end" class="strong">6,042</text><text x="34" y="312" class="label">Lines.Added</text><line x1="210" y1="307" x2="570" y2="307" stroke="currentColor" opacity="0"/><text x="210" y="312" class="dots">................................</text><text x="726" y="312" text-anchor="end" class="add">7,208 ++</text><text x="34" y="346" class="label">Lines.Deleted</text><line x1="210" y1="341" x2="570" y2="341" stroke="currentColor" opacity="0"/><text x="210" y="346" class="dots">................................</text><text x="726" y="346" text-anchor="end" class="del">1,166 --</text></svg>