<svg xmlns="http://www.w3.org/2000/svg" width="760" height="856" viewBox="0 0 760 856" role="img" aria-label="mjr267 profile">
<style>
.kicker { font: 700 11px ui-monospace, SFMono-Regular, Menlo, Monaco, Consolas, monospace; letter-spacing: 1.8px; fill: #f59e0b; }
.hero { font: 700 30px ui-monospace, SFMono-Regular, Menlo, Monaco, Consolas, monospace; fill: #e6edf3; }
.section { font: 700 12px ui-monospace, SFMono-Regular, Menlo, Monaco, Consolas, monospace; letter-spacing: 1.4px; fill: #f59e0b; }
.stat { font: 700 27px ui-monospace, SFMono-Regular, Menlo, Monaco, Consolas, monospace; fill: #e6edf3; }
.statlabel { font: 11px ui-monospace, SFMono-Regular, Menlo, Monaco, Consolas, monospace; fill: #6e7681; }
.label { font: 700 12px ui-monospace, SFMono-Regular, Menlo, Monaco, Consolas, monospace; fill: #e6edf3; }
.text { font: 13px ui-monospace, SFMono-Regular, Menlo, Monaco, Consolas, monospace; fill: #9cdcfe; }
.muted { font: 12px ui-monospace, SFMono-Regular, Menlo, Monaco, Consolas, monospace; fill: #6e7681; }
.rule { stroke: #30363d; stroke-width: 1; }
</style>
<rect x="1" y="1" width="758" height="854" rx="18" fill="#0d1117" stroke="#30363d" /><text x="40" y="48" class="kicker">MJR267 / PROFILE</text><text x="40" y="92" class="hero">analytics engineering</text><text x="40" y="126" class="hero">+ things I build.</text><text x="40" y="162" class="muted">Data systems, BI, automation, infrastructure, and developer tooling.</text><line x1="40" y1="194" x2="720" y2="194" class="rule"/><text x="40" y="229" class="section">GITHUB / ALL-TIME ACTIVITY</text><text x="40" y="278" class="stat">2,168</text><text x="40" y="301" class="statlabel">CONTRIBUTIONS</text><text x="280" y="278" class="stat">1,497</text><text x="280" y="301" class="statlabel">COMMITS</text><text x="520" y="278" class="stat">359</text><text x="520" y="301" class="statlabel">PULL REQUESTS</text><text x="40" y="352" class="stat">254</text><text x="40" y="375" class="statlabel">CODE REVIEWS</text><text x="280" y="352" class="stat">42</text><text x="280" y="375" class="statlabel">ISSUES</text><text x="520" y="352" class="stat">11</text><text x="520" y="375" class="statlabel">REPOS OWNED</text><line x1="40" y1="400" x2="720" y2="400" class="rule"/><text x="40" y="435" class="section">WHAT I WORK ON</text><text x="40" y="474" class="label">Analytics systems</text><text x="218" y="474" class="text">warehouses · semantic layers · reporting</text><text x="40" y="507" class="label">Engineering</text><text x="218" y="507" class="text">pipelines · automation · internal tools</text><text x="40" y="540" class="label">Infrastructure</text><text x="218" y="540" class="text">cloud services · CI/CD · self-hosted systems</text><line x1="40" y1="578" x2="720" y2="578" class="rule"/><text x="40" y="613" class="section">TOOLS I ACTUALLY USE</text><text x="40" y="652" class="label">DATA</text><text x="218" y="652" class="text">dbt · Snowflake · BigQuery · Airbyte · Fivetran</text><text x="40" y="685" class="label">BI</text><text x="218" y="685" class="text">Looker · LookML · Tableau · Power BI</text><text x="40" y="718" class="label">BUILD</text><text x="218" y="718" class="text">Python · SQL · Docker · GitHub Actions</text><text x="40" y="751" class="label">PLATFORM</text><text x="218" y="751" class="text">Vercel · Supabase · Cloudflare · Linux</text><text x="40" y="784" class="label">WORKFLOW</text><text x="218" y="784" class="text">Git · GitHub · CI/CD · automation</text><text x="40" y="824" class="muted">SAN DIEGO, CA</text><text x="720" y="824" text-anchor="end" class="muted">github.com/mjr267</text></svg>